<?xml version="1.0" encoding="utf-8"?>
<svg version="1.1" xmlns:xlink="http://www.w3.org/1999/xlink" width="20px" height="19px" xmlns="http://www.w3.org/2000/svg">
  <g transform="matrix(1 0 0 1 -60 -250 )">
    <path d="M 9.22162804515746 6.20603015075377  C 9.66528025351555 5.76046901172529  9.88710635769459 5.21943048576214  9.88710635769459 4.58291457286432  C 9.88710635769459 3.9463986599665  9.66528025351555 3.40536013400335  9.22162804515746 2.95979899497487  C 8.77797583679937 2.5142378559464  8.23925529807883 2.29145728643216  7.60546642899584 2.29145728643216  C 6.97167755991285 2.29145728643216  6.43295702119232 2.5142378559464  5.98930481283422 2.95979899497487  C 5.54565260447613 3.40536013400335  5.32382650029709 3.9463986599665  5.32382650029709 4.58291457286432  C 5.32382650029709 4.91708542713568  5.39908892850069 5.24727805695142  5.5496137849079 5.57349246231156  C 5.22479698950287 5.42231993299832  4.89601901366607 5.34673366834171  4.5632798573975 5.34673366834171  C 3.92949098831452 5.34673366834171  3.39077044959398 5.56951423785594  2.94711824123589 6.01507537688442  C 2.5034660328778 6.4606365159129  2.28163992869875 7.00167504187605  2.28163992869875 7.63819095477387  C 2.28163992869875 8.27470686767169  2.5034660328778 8.81574539363484  2.94711824123589 9.26130653266332  C 3.39077044959398 9.70686767169179  3.92949098831452 9.92964824120603  4.5632798573975 9.92964824120603  C 5.19706872648049 9.92964824120603  5.73578926520103 9.70686767169179  6.17944147355912 9.26130653266332  C 6.62309368191721 8.81574539363484  6.84491978609626 8.27470686767169  6.84491978609626 7.63819095477387  C 6.84491978609626 7.30402010050251  6.76965735789265 6.97382747068677  6.61913250148544 6.64761306532663  C 6.94394929689047 6.79878559463987  7.27272727272727 6.87437185929648  7.60546642899584 6.87437185929648  C 8.23925529807883 6.87437185929648  8.77797583679937 6.65159128978224  9.22162804515746 6.20603015075377  Z M 19.6613190730838 12.4956030150754  C 19.8871063576946 12.7581658291457  20 12.9212730318258  20 12.9849246231156  C 20 13.1201842546064  19.8059021588433 13.3827470686767  19.41770647653 13.7726130653266  C 19.0295107942167 14.1624790619765  18.7680728857199 14.3574120603015  18.6333927510398 14.3574120603015  C 18.562091503268 14.3574120603015  18.4491978609626 14.2937604690117  18.2947118241236 14.1664572864322  C 18.1402257872846 14.0391541038526  17.9956427015251 13.9078726968174  17.8609625668449 13.7726130653266  C 17.7262824321648 13.6373534338358  17.5737769855417 13.4782244556114  17.4034462269756 13.2952261306533  C 17.2331154684096 13.1122278056951  17.1360665478313 13.0087939698492  17.1122994652406 12.9849246231156  L 15.9714795008913 14.1306532663317  L 18.5858585858586 16.7562814070352  C 18.8076846900376 16.9790619765494  18.9185977421272 17.249581239531  18.9185977421272 17.5678391959799  C 18.9185977421272 17.9020100502513  18.7641117052882 18.2242462311558  18.4551396316102 18.5345477386935  C 18.1461675579323 18.8448492462312  17.825311942959 19  17.4925727866904 19  C 17.1756783521489 19  16.9063180827887 18.8886097152429  16.6844919786096 18.6658291457286  L 8.7106357694593 10.6576633165829  C 7.31630025747673 11.6999581239531  5.87046939988116 12.2211055276382  4.37314319667261 12.2211055276382  C 3.08179837591602 12.2211055276382  2.03010497128144 11.813337520938  1.21806298276887 10.9978015075377  C 0.406020994256289 10.1822654941374  0 9.12604690117253  0 7.82914572864322  C 0 6.55611390284757  0.376312141018024 5.31092964824121  1.12893642305407 4.09359296482412  C 1.88156070509012 2.87625628140703  2.86393345216875 1.88965661641541  4.07605466428996 1.13379396984925  C 5.28817587641117 0.377931323283081  6.52802535155476 0  7.79560308972074 0  C 9.08694791047732 0  10.1386413151119 0.407768006700166  10.9506833036245 1.2233040201005  C 11.7627252921371 2.03884003350084  12.1687462863933 3.09505862646566  12.1687462863933 4.39195979899498  C 12.1687462863933 5.89572864321608  11.6498316498317 7.34778056951424  10.6120023767083 8.74811557788945  L 14.8306595365419 12.9849246231156  L 15.9714795008913 11.8391959798995  C 15.9477124183007 11.8153266331658  15.8447217270747 11.7178601340033  15.6625074272133 11.5467964824121  C 15.480293127352 11.3757328308208  15.3218459100812 11.2225711892797  15.1871657754011 11.0873115577889  C 15.0524856407209 10.9520519262982  14.9217666864726 10.8068467336683  14.795008912656 10.6516959798995  C 14.6682511388394 10.4965452261307  14.6048722519311 10.3831658291457  14.6048722519311 10.3115577889447  C 14.6048722519311 10.1762981574539  14.7989700930877 9.91373534338358  15.1871657754011 9.52386934673367  C 15.5753614577144 9.13400335008375  15.8367993662111 8.93907035175879  15.9714795008913 8.93907035175879  C 16.0744701921173 8.93907035175879  16.1655773420479 8.97885259631491  16.2448009506833 9.05841708542713  C 16.2923351158645 9.10615577889447  16.4745494157259 9.28318676716918  16.7914438502674 9.58951005025126  C 17.1083382848089 9.89583333333333  17.4331550802139 10.2121021775544  17.7658942364825 10.5383165829146  C 18.098633392751 10.8645309882747  18.441275500099 11.2066582914573  18.7938205585264 11.5646984924623  C 19.1463656169539 11.9227386934673  19.435531788473 12.233040201005  19.6613190730838 12.4956030150754  Z " fill-rule="nonzero" fill="#cccccc" stroke="none" transform="matrix(1 0 0 1 60 250 )" />
  </g>
</svg>