<?xml version="1.0" encoding="utf-8"?>
<svg version="1.1" xmlns:xlink="http://www.w3.org/1999/xlink" width="80px" height="80px" xmlns="http://www.w3.org/2000/svg">
  <g transform="matrix(1 0 0 1 -130 -164 )">
    <path d="M 80 40  C 80 17.9069256973489  62.0929828120909 0  40 0  C 17.908571455273 0  0 17.9069256973489  0 40  C 0 62.0930743026511  17.908571455273 80  40 80  C 62.0930743026509 80  80 62.0930743026511  80 40  Z M 76.6666056878512 40  C 76.6666056878512 48.8965484833338  73.4797713902863 57.0603884736531  68.1916342684876 63.4145828027562  C 64.5360456746248 61.8879085088684  55.904914254158 58.8932571015048  50.5647542955116 57.3177599067112  C 50.1073371448711 57.1744913186292  50.0373943093612 57.1516342248869  50.0373943093612 55.2539427483793  C 50.0373943093612 53.6882284318788  50.6803200066388 52.1127313264315  51.3086171317565 50.7779656297575  C 51.990491450433 49.3260799545922  52.7978056703964 46.8880455883522  53.0858057127109 44.7005255985248  C 53.897965715887 43.7596341782126  55.0015085890938 41.9041827496058  55.7094400268011 38.3690055607363  C 56.3327085662786 35.2506512325308  56.0415999892355 34.1175770113634  55.6296229117843 33.0535312561839  C 55.5858285965189 32.9395198124214  55.5402058102483 32.8287997951611  55.5093029080044 32.7180798672471  C 55.3530515056871 31.9890284055895  55.5663543304931 28.1902627142048  56.1001143672203 25.2439770229856  C 56.4696686836898 23.2226742055424  56.0073143486225 18.92580558298  53.2241372057124 15.3676798991546  C 51.4663314895704 13.1216456206887  48.1022171669517 10.3613255715209  41.9594971916486 9.97705137102457  L 38.5902628821761 9.98043419874084  C 32.5519542747693 10.3613256608671  29.1877486402832 13.1216456206887  27.4299429241414 15.3676798991546  C 24.6466743800179 18.92580558298  24.1844115355107 23.2226742055424  24.5522286034955 25.2439770229856  C 25.0877257100148 28.1901713129912  25.3008457323926 31.9889370043758  25.1479771577915 32.7050970530119  C 25.1136914278318 32.8287084832937  25.0682514439882 32.9394285005539  25.0243657275094 33.0535313455304  C 24.6126628536993 34.11757710071  24.3212799836692 35.250651321877  24.9445486124925 38.3690056500825  C 25.6524800501998 41.9041827496058  26.7560229234066 43.7596341782122  27.5682743277966 44.7005256878711  C 27.8562743701112 46.8880456776984  28.6635885900749 49.3260799545922  29.3456457111786 50.7779657191037  C 29.8453028203738 51.8390857419821  30.0780800005521 53.2812800294141  30.0780800005521 55.3221486034436  C 30.0780800005521 57.2201142835926  30.008137165042 57.2426971736935  29.5800685599343 57.3763657752559  C 24.0560457232291 59.0073600358271  15.2636343148051 62.1842286526713  11.9857371577802 63.6197485965389  C 6.59337147051228 57.2364800148902  3.33330291093534 48.9940114827175  3.33330291093534 40  C 3.33330291093534 19.7819428825416  19.7819428825416 3.33339431214881  40 3.33339431214881  C 60.2180571174584 3.33339431214881  76.6666056878512 19.781851481328  76.6666056878512 40  Z " fill-rule="nonzero" fill="#cccccc" stroke="none" transform="matrix(1 0 0 1 130 164 )" />
  </g>
</svg>