<?xml version="1.0" encoding="utf-8"?>
<svg version="1.1" xmlns:xlink="http://www.w3.org/1999/xlink" width="47px" height="47px" xmlns="http://www.w3.org/2000/svg">
  <g transform="matrix(1 0 0 1 -119 0 )">
    <path d="M 142.5 1  C 155.1 1  165 10.9  165 23.5  C 165 36.1  155.1 46  142.5 46  C 129.9 46  120 36.1  120 23.5  C 120 10.9  129.9 1  142.5 1  Z " fill-rule="nonzero" fill="#3399ff" stroke="none" />
    <path d="M 142.5 1  C 155.1 1  165 10.9  165 23.5  C 165 36.1  155.1 46  142.5 46  C 129.9 46  120 36.1  120 23.5  C 120 10.9  129.9 1  142.5 1  Z " stroke-width="2" stroke="#3399ff" fill="none" />
  </g>
</svg>