<?xml version="1.0" encoding="utf-8"?>
<svg version="1.1" xmlns:xlink="http://www.w3.org/1999/xlink" width="47px" height="47px" xmlns="http://www.w3.org/2000/svg">
  <g transform="matrix(1 0 0 1 -332 0 )">
    <path d="M 355.5 1  C 368.1 1  378 10.9  378 23.5  C 378 36.1  368.1 46  355.5 46  C 342.9 46  333 36.1  333 23.5  C 333 10.9  342.9 1  355.5 1  Z " fill-rule="nonzero" fill="#ffffff" stroke="none" />
    <path d="M 355.5 1  C 368.1 1  378 10.9  378 23.5  C 378 36.1  368.1 46  355.5 46  C 342.9 46  333 36.1  333 23.5  C 333 10.9  342.9 1  355.5 1  Z " stroke-width="2" stroke="#e4e4e4" fill="none" />
  </g>
</svg>