<?xml version="1.0" encoding="utf-8"?>
<svg version="1.1" xmlns:xlink="http://www.w3.org/1999/xlink" width="40px" height="40px" xmlns="http://www.w3.org/2000/svg">
  <g transform="matrix(1 0 0 1 0 -7 )">
    <path d="M 20 8  C 30.64 8  39 16.36  39 27  C 39 37.64  30.64 46  20 46  C 9.36 46  1 37.64  1 27  C 1 16.36  9.36 8  20 8  Z " fill-rule="nonzero" fill="#70b603" stroke="none" />
    <path d="M 20 8  C 30.64 8  39 16.36  39 27  C 39 37.64  30.64 46  20 46  C 9.36 46  1 37.64  1 27  C 1 16.36  9.36 8  20 8  Z " stroke-width="2" stroke="#70b603" fill="none" />
  </g>
</svg>