<?xml version="1.0" encoding="utf-8"?>
<svg version="1.1" xmlns:xlink="http://www.w3.org/1999/xlink" width="300px" height="50px" xmlns="http://www.w3.org/2000/svg">
  <g transform="matrix(1 0 0 1 -50 -164 )">
    <path d="M 51 167  A 2 2 0 0 1 53 165 L 347 165  A 2 2 0 0 1 349 167 L 349 211  A 2 2 0 0 1 347 213 L 53 213  A 2 2 0 0 1 51 211 L 51 167  Z " fill-rule="nonzero" fill="#ffffff" stroke="none" />
    <path d="M 50.5 167  A 2.5 2.5 0 0 1 53 164.5 L 347 164.5  A 2.5 2.5 0 0 1 349.5 167 L 349.5 211  A 2.5 2.5 0 0 1 347 213.5 L 53 213.5  A 2.5 2.5 0 0 1 50.5 211 L 50.5 167  Z " stroke-width="1" stroke="#cccccc" fill="none" stroke-opacity="0.698039215686274" />
  </g>
</svg>